HIERARCHY
ROOT hips
{
  OFFSET 0 11.86390953 0.3628582958
  CHANNELS 6 Xposition Yposition Zposition Yrotation Xrotation Zrotation
  JOINT spine
  {
    OFFSET 0 0.05383551117999996 0
    CHANNELS 3 Yrotation Xrotation Zrotation
    JOINT chest
    {
      OFFSET 0 0.6394558760401424 0
      CHANNELS 3 Yrotation Xrotation Zrotation
      JOINT neck
      {
        OFFSET 0 2.720089088562982 0
        CHANNELS 3 Yrotation Xrotation Zrotation
        JOINT head
        {
          OFFSET 0 0.37880844870545777 0
          CHANNELS 3 Yrotation Xrotation Zrotation
          JOINT rightEye
          {
            OFFSET -0.42867780714 0.7547055649100001 0.7381831347
            CHANNELS 3 Yrotation Xrotation Zrotation
            End Site
            {
              OFFSET -0.42867780714 0.7547055649100001 0.7381831347
            }
          }
          JOINT leftEye
          {
            OFFSET 0.428676479 0.7547055559999993 0.7381844503
            CHANNELS 3 Yrotation Xrotation Zrotation
            End Site
            {
              OFFSET 0.428676479 0.7547055559999993 0.7381844503
            }
          }
          JOINT jaw
          {
            OFFSET -0.18933892286100001 1.5626303011000007 1.137441874206
            CHANNELS 3 Yrotation Xrotation Zrotation
            End Site
            {
              OFFSET -0.18933892286100001 1.5626303011000007 1.137441874206
            }
          }
        }
      }
      JOINT rightShoulder
      {
        OFFSET -0.6795351508 2.0665205 0
        CHANNELS 3 Yrotation Xrotation Zrotation
        JOINT rightUpperArm
        {
          OFFSET -0.7287400483531672 0 0
          CHANNELS 3 Yrotation Xrotation Zrotation
          JOINT rightLowerArm
          {
            OFFSET -1.9872982039174532 0 0
            CHANNELS 3 Yrotation Xrotation Zrotation
            JOINT rightHand
            {
              OFFSET -2.6451847532219275 0 0
              CHANNELS 3 Yrotation Xrotation Zrotation
              JOINT rightLittleProximal
              {
                OFFSET -0.8008804099999995 -0.09592044000000044 -0.26183688629999996
                CHANNELS 3 Yrotation Xrotation Zrotation
                JOINT rightLittleIntermediate
                {
                  OFFSET -0.2473955153999997 -0.02541697026000067 0.002370178700999967
                  CHANNELS 3 Yrotation Xrotation Zrotation
                  JOINT rightLittleDistal
                  {
                    OFFSET -0.163687229200001 -0.015790700860001117 -0.0004274845300000635
                    CHANNELS 3 Yrotation Xrotation Zrotation
                    End Site
                    {
                      OFFSET -0.163687229200001 -0.015790700860001117 -0.0004274845300000635
                    }
                  }
                }
              }
              JOINT rightRingProximal
              {
                OFFSET -0.8393382799999985 -0.06223833561000025 -0.09213143500000005
                CHANNELS 3 Yrotation Xrotation Zrotation
                JOINT rightRingIntermediate
                {
                  OFFSET -0.3284497260000011 -0.03264224524000103 0.009408593183000052
                  CHANNELS 3 Yrotation Xrotation Zrotation
                  JOINT rightRingDistal
                  {
                    OFFSET -0.19447660429999902 -0.021730899850000318 0.003074347969000052
                    CHANNELS 3 Yrotation Xrotation Zrotation
                    End Site
                    {
                      OFFSET -0.19447660429999902 -0.021730899850000318 0.003074347969000052
                    }
                  }
                }
              }
              JOINT rightMiddleProximal
              {
                OFFSET -0.8473005199999989 -0.06735503500000095 0.10541820299999995
                CHANNELS 3 Yrotation Xrotation Zrotation
                JOINT rightMiddleIntermediate
                {
                  OFFSET -0.3450455799999995 -0.02481901642000084 0.019012570390000032
                  CHANNELS 3 Yrotation Xrotation Zrotation
                  JOINT rightMiddleDistal
                  {
                    OFFSET -0.23542332000000088 -0.025003910029999243 0.0075583457949999905
                    CHANNELS 3 Yrotation Xrotation Zrotation
                    End Site
                    {
                      OFFSET -0.23542332000000088 -0.025003910029999243 0.0075583457949999905
                    }
                  }
                }
              }
              JOINT rightIndexProximal
              {
                OFFSET -0.8008568281999987 -0.09897839600000169 0.29462796
                CHANNELS 3 Yrotation Xrotation Zrotation
                JOINT rightIndexIntermediate
                {
                  OFFSET -0.30524754480000016 -0.024634122809999992 0.02743375304999998
                  CHANNELS 3 Yrotation Xrotation Zrotation
                  JOINT rightIndexDistal
                  {
                    OFFSET -0.23067378950000017 -0.016876459159999913 0.008484125099999983
                    CHANNELS 3 Yrotation Xrotation Zrotation
                    End Site
                    {
                      OFFSET -0.23067378950000017 -0.016876459159999913 0.008484125099999983
                    }
                  }
                }
              }
              JOINT rightThumbProximal
              {
                OFFSET -0.25574064999999935 -0.12833189930000155 0.22385698609999993
                CHANNELS 3 Yrotation Xrotation Zrotation
                JOINT rightThumbIntermediate
                {
                  OFFSET -0.22791743260000086 -0.07103586192999978 0.27385039
                  CHANNELS 3 Yrotation Xrotation Zrotation
                  JOINT rightThumbDistal
                  {
                    OFFSET -0.13610267659999975 -0.03369390969999997 0.14246511509999996
                    CHANNELS 3 Yrotation Xrotation Zrotation
                    End Site
                    {
                      OFFSET -0.13610267659999975 -0.03369390969999997 0.14246511509999996
                    }
                  }
                }
              }
            }
          }
        }
      }
      JOINT leftShoulder
      {
        OFFSET 0.6795338396 2.0665205 0
        CHANNELS 3 Yrotation Xrotation Zrotation
        JOINT leftUpperArm
        {
          OFFSET 0.7287383950230443 0 0
          CHANNELS 3 Yrotation Xrotation Zrotation
          JOINT leftLowerArm
          {
            OFFSET 1.9872997282019604 0 0
            CHANNELS 3 Yrotation Xrotation Zrotation
            JOINT leftHand
            {
              OFFSET 2.6451820781302327 0 0
              CHANNELS 3 Yrotation Xrotation Zrotation
              JOINT leftLittleProximal
              {
                OFFSET 0.8008804099999995 -0.09592306899999814 -0.2618342639000001
                CHANNELS 3 Yrotation Xrotation Zrotation
                JOINT leftLittleIntermediate
                {
                  OFFSET 0.2473981400000007 -0.02542352681000093 0.0023609995859999455
                  CHANNELS 3 Yrotation Xrotation Zrotation
                  JOINT leftLittleDistal
                  {
                    OFFSET 0.1636846068000002 -0.015794634789999318 -0.00043272972159996703
                    CHANNELS 3 Yrotation Xrotation Zrotation
                    End Site
                    {
                      OFFSET 0.1636846068000002 -0.015794634789999318 -0.00043272972159996703
                    }
                  }
                }
              }
              JOINT leftRingProximal
              {
                OFFSET 0.8393409199999996 -0.062242267999998324 -0.0921281570000001
                CHANNELS 3 Yrotation Xrotation Zrotation
                JOINT leftRingIntermediate
                {
                  OFFSET 0.3284471036000003 -0.03264224524000103 0.009405970574000042
                  CHANNELS 3 Yrotation Xrotation Zrotation
                  JOINT leftRingDistal
                  {
                    OFFSET 0.1944779099999996 -0.021732211159998904 0.003073036670000001
                    CHANNELS 3 Yrotation Xrotation Zrotation
                    End Site
                    {
                      OFFSET 0.1944779099999996 -0.021732211159998904 0.003073036670000001
                    }
                  }
                }
              }
              JOINT leftMiddleProximal
              {
                OFFSET 0.8473005200000001 -0.06736028199999788 0.1054214809999999
                CHANNELS 3 Yrotation Xrotation Zrotation
                JOINT leftMiddleIntermediate
                {
                  OFFSET 0.3450455799999995 -0.024824261000000014 0.019013225990000007
                  CHANNELS 3 Yrotation Xrotation Zrotation
                  JOINT leftMiddleDistal
                  {
                    OFFSET 0.2354259489999998 -0.025005222000000327 0.0075590014499999705
                    CHANNELS 3 Yrotation Xrotation Zrotation
                    End Site
                    {
                      OFFSET 0.2354259489999998 -0.025005222000000327 0.0075590014499999705
                    }
                  }
                }
              }
              JOINT leftIndexProximal
              {
                OFFSET 0.8008594516999996 -0.09898495199999946 0.29463124239999994
                CHANNELS 3 Yrotation Xrotation Zrotation
                JOINT leftIndexIntermediate
                {
                  OFFSET 0.30524754480000016 -0.024632811499998963 0.02743047472
                  CHANNELS 3 Yrotation Xrotation Zrotation
                  JOINT leftIndexDistal
                  {
                    OFFSET 0.23067378950000017 -0.016876459159999913 0.008481502700000004
                    CHANNELS 3 Yrotation Xrotation Zrotation
                    End Site
                    {
                      OFFSET 0.23067378950000017 -0.016876459159999913 0.008481502700000004
                    }
                  }
                }
              }
              JOINT leftThumbProximal
              {
                OFFSET 0.25574326469999953 -0.12833321050000013 0.22385764169999997
                CHANNELS 3 Yrotation Xrotation Zrotation
                JOINT leftThumbIntermediate
                {
                  OFFSET 0.22804987480000094 -0.07138466829999968 0.273648441
                  CHANNELS 3 Yrotation Xrotation Zrotation
                  JOINT leftThumbDistal
                  {
                    OFFSET 0.13614857189999907 -0.033867001519998885 0.14238119169999996
                    CHANNELS 3 Yrotation Xrotation Zrotation
                    End Site
                    {
                      OFFSET 0.13614857189999907 -0.033867001519998885 0.14238119169999996
                    }
                  }
                }
              }
            }
          }
        }
      }
    }
  }
  JOINT rightUpperLeg
  {
    OFFSET -0.9749898906000001 -1.8495733739999998 0
    CHANNELS 3 Yrotation Xrotation Zrotation
    JOINT rightLowerLeg
    {
      OFFSET 0 -4.1566544686813165 0
      CHANNELS 3 Yrotation Xrotation Zrotation
      JOINT rightFoot
      {
        OFFSET 0.14539718599999998 -4.225553926 -0.3666210900000001
        CHANNELS 3 Yrotation Xrotation Zrotation
        JOINT rightToes
        {
          OFFSET 0.1706738473 -0.9584117400000015 1.0093348617
          CHANNELS 3 Yrotation Xrotation Zrotation
          End Site
          {
            OFFSET 0.1706738473 -0.9584117400000015 1.0093348617
          }
        }
      }
    }
  }
  JOINT leftUpperLeg
  {
    OFFSET 0.9749898906000001 -1.8495733739999998 0
    CHANNELS 3 Yrotation Xrotation Zrotation
    JOINT leftLowerLeg
    {
      OFFSET 0 -4.156653488267941 0
      CHANNELS 3 Yrotation Xrotation Zrotation
      JOINT leftFoot
      {
        OFFSET -0.14537357999999995 -4.225555399999999 -0.36661124279999996
        CHANNELS 3 Yrotation Xrotation Zrotation
        JOINT leftToes
        {
          OFFSET -0.17066467000000002 -0.9584157000000019 1.0093348617
          CHANNELS 3 Yrotation Xrotation Zrotation
          End Site
          {
            OFFSET -0.17066467000000002 -0.9584157000000019 1.0093348617
          }
        }
      }
    }
  }
}
MOTION
Frames: 4
Frame Time: 0.03333333333333333
-0.12408275157213211 -1.192633437470704 -0.9372042417526245 -1.4936804215398574 4.757594627297329 -1.2525083676315385 0.833415991724683 14.329984782438862 0.7201936223796978 0.8369049577636328 16.480679131072602 -0.03851078958374303 -1.181302395121433 -6.913915662926236 2.9004197257274877 -5.3223511568305355 -34.01485102534568 5.984570873739091 0 0 0 0 0 0 0 0 0 6.250869022343772 6.785149119529388 14.831205996300236 48.095231463579736 -27.949473504813746 32.414131078199475 12.352836722170881 0.01714336152591674 -0.15833420060999145 16.845271033466513 30.996063604339408 3.063035112073997 -21.312229811843874 6.443712654735718 34.0410040631479 -2.2751212421118003 0.6815407252570372 36.62298173078776 -0.8530424808895892 0.06106733220862477 11.67707789171453 -13.94328458228622 6.049050042022452 28.74576089176289 -2.0278971423562737 0.553887983573817 30.700582063523818 -1.4829314367811757 0.2940366121859766 22.024740972365795 -5.1603147323281835 0.8110913498930046 18.837267031401044 -1.6503301163958497 0.39089705313867573 26.37845910217625 -1.2375562728234213 0.18726461705373199 17.816131012131645 9.06112119680439 -0.8703358541389248 10.559087422886117 -1.295167802628461 0.22651215451198609 19.716811471927752 -0.7733108700980026 0.07487610349083612 11.216512897286986 6.001578509914884 -5.21390387816283 -2.802429609478258 -5.6360311847854705 4.928256900820912 -1.631574849408829 9.452252891327868 -10.421603715812612 -12.701155421918473 -15.460061365328391 4.744736582915778 -6.372192342035943 -45.2990014694879 -25.799601091623227 -27.50498784035105 -12.835878775191157 0.018472195236979905 0.1644281409935189 -4.219877130704576 10.431051329462017 -14.219794692332808 21.17360948973872 6.068572196507716 -32.989493657755226 2.8305861406865276 1.0114990759063422 -34.32541600501445 0.9229763478856194 0.12268022969274987 -10.501330311831289 13.796580578208987 5.500831072839282 -27.44473511943523 2.4088682956724914 0.6016878657677384 -28.030232550310295 1.8724163777551452 0.3545649334044124 -21.42745507967597 5.647609629784437 0.875411967432974 -18.083370706957243 2.0667283844161077 0.4335845201470011 -23.74840996642125 1.5202399834441347 0.23029416169216146 -17.227305028627796 -7.717900401164707 -0.7077957145449836 -9.801527726506697 1.4842485135306065 0.21813705223185717 -16.69748438699055 0.9242056005670515 0.08529386638342304 -10.475835923717547 -4.333851193988704 -4.484494551310415 3.4789641760733603 4.333991169702784 4.515081785698452 0.6851732373093383 -15.327667562302056 -12.593807833757834 12.168608039105298 2.2645256967938097 -32.89183675032217 0.9792970389981261 3.680709165523316 51.231319808212795 3.7065901822297644 -19.560307291420823 -22.954077566048024 7.34897909703389 0.000005717929878104492 1.11439641419048 -5.10217162013022e-7 -4.540507282115841 -32.75163416294748 2.6004534465563562 8.443797694230124 51.73309699465381 4.734169847694582 15.24959778844753 -22.744388534331897 -7.279823971851497 6.947100181571387e-7 -6.755985737561708 -0.0000040848489935544606
-0.11671994626522064 -1.3837774270336922 -1.0202000141143799 -1.2618885479034847 5.729656738067703 -1.0608701887032792 0.9969399718783507 15.35763212890473 0.7268069196378354 1.013124401082057 17.28296934202237 -0.045323897460137125 -1.250212894697385 -5.899729739482798 2.5337785476900017 -5.366051781066259 -29.818339200266404 4.647142791346571 0 0 0 0 0 0 0 0 0 6.14715404774423 6.8540671079480235 14.05370169616005 51.263739960912474 -28.691524981249067 31.11754814125488 11.31767702072402 0.014390254907260997 -0.14524316857744748 17.447803597371365 35.33570055620177 3.0304943484328706 -21.16744728070982 5.9913454020404595 31.60639252310593 -2.0819064193444 0.557659385918881 33.27544129191869 -0.7880156302781409 0.04989703948399462 10.71437927621488 -13.875738372857457 5.463882770266035 26.27343238531677 -1.8248810442142598 0.4408381521105435 27.308292845699395 -1.4216756235966812 0.2694838127620914 21.061545502356434 -5.043146604596147 0.6974904253233796 16.40506191228129 -1.4408983067615122 0.2971217376295934 23.02860976627732 -1.1746064021980123 0.1676613063803984 16.85353577059329 9.152961051034081 -0.7317375236010943 8.195519469059297 -1.0770179106642246 0.1561069147034614 16.36969325278709 -0.7085456004696399 0.0625963349777437 10.253831265764038 6.547355702306163 -5.401990016968127 -3.0977681012700864 -5.140117495723545 4.865533428866979 -1.5374664997916734 9.825149097990609 -10.487051026247473 -12.688454235220858 -16.045643737569364 4.7894094363719875 -6.768738226519076 -49.65696115817883 -24.843554429282317 -24.964080725292632 -10.791688286346124 0.013087386280436831 0.13857131416059998 -5.554563222754209 11.509701177844091 -14.65528271116875 20.99732567329968 5.585151311149768 -30.13990217539395 2.548192160139158 0.8155921509803107 -30.490034234180172 0.8315838647596847 0.1028668262886391 -9.456634269553163 13.687678324678725 4.884721398871261 -24.646764694671027 2.1036194047195025 0.4519187094198887 -24.230959685088116 1.7785605701828968 0.3187782859047257 -20.30477696399283 5.426845003099616 0.7187852199476128 -15.303460532498995 1.7552034304184947 0.3086088355742491 -19.99701181037813 1.4240517460863742 0.20146070001169666 -16.10502971847169 -7.993281334432294 -0.632138134258484 -7.184173504227092 1.1689760032034315 0.13392182879457834 -13.049433004981427 0.8227100706248811 0.06760632199019108 -9.323889870512671 -4.915963924517319 -4.6892612946524705 3.765967259795518 3.6452574433953386 4.413120882161831 0.5508231437629304 -15.76695710437483 -12.645107258874441 12.147603330486179 2.7806442513692944 -36.68986676392215 0.5169315274697406 3.7978930846640995 55.61951503789421 4.032573644946813 -20.14866373518303 -24.35685291411686 8.16515122980763 -0.00000419474988484035 1.11439641419048 -9.44099195189596e-7 -5.382263001766396 -36.51358168935945 2.5872055689912385 9.680800174212916 55.87327333014533 6.242542249061108 15.809443734713994 -23.980534285466746 -8.12556503883854 0.0000030755555470618445 -6.7559908960230795 -0.0000036865226403396036
-0.11303509771823883 -1.5410421365063485 -1.0784635543823242 -1.1224347512273225 6.058896887973489 -0.8982569941837043 1.053011243350616 16.46332513962287 0.7488549536357385 1.0802740749985416 18.118198674915625 0.0018540980713620204 -1.2962854630730656 -4.185653885967544 2.064539773751398 -5.357614817035799 -22.675725336808963 2.923056117071199 0 0 0 0 0 0 0 0 0 5.851886674212009 6.880812636293916 12.86523026979767 54.762539496582605 -30.26709670565868 29.87589774812094 9.47836698590646 0.01010873338491551 -0.12188775278757429 17.770897937617214 40.04543605380549 4.888544908057105 -20.8579089513547 5.4960214070294455 29.449558477855575 -1.9021449847250353 0.4559958199940479 30.263658960418777 -0.7292245784961643 0.04076460345326526 9.845542589232089 -13.675978653430109 4.8950186749389335 24.070046596977914 -1.636805928472017 0.34954131447719855 24.256246816084545 -1.366054273295103 0.2482296478550423 20.19226120627041 -4.937580072694788 0.6017356263647826 14.277027462518179 -1.248099554335001 0.22336313289228826 20.014796765809837 -1.11753602386262 0.15089009887782534 15.984796629842345 9.105545809421338 -0.5988401609348813 6.139981305329261 -0.8776229305890001 0.10376222285582416 13.359261721824536 -0.6499068556682187 0.05246076268411283 9.385009602090243 6.988217721961096 -5.557415656313595 -3.3774396614932263 -4.778682280087022 4.819289777080646 -1.4691961718996973 10.090334552940853 -10.533926793942515 -12.679668261625444 -16.131846955170115 4.88178271538117 -7.089971818789304 -53.64179787197393 -24.10291131018252 -22.92022411560195 -9.491166091727383 0.010108545788164145 0.12204201866366188 -5.6407166699511535 13.453952290037748 -14.287621826005063 20.651018707827344 5.07069474212861 -27.70108175073631 2.2939017960359815 0.6617372054007467 -27.173070764230776 0.7616513072404155 0.08886520567092994 -8.659845862974626 13.454444875115472 4.32032848552983 -22.275664413546526 1.8356878410186677 0.34030627779878053 -20.98714403912404 1.6951821433733545 0.2887139850447573 -19.314523963349497 5.222366134594263 0.5932132747073017 -12.981864343485316 1.4833101184409088 0.21826777392918842 -16.79452331021547 1.3387556614323828 0.1776001171809594 -15.115091049916463 -8.12260598553818 -0.5565520425150868 -5.060519769807751 0.9004718012852316 0.07883172039451648 -9.984916528199747 0.7396144982434623 0.054674518675220565 -8.383755920860759 -5.338127070988108 -4.836566996225636 4.021058858849699 3.1551743221062596 4.339586957007673 0.4559708651019087 -16.02000235191318 -12.652120455666193 12.128728705020723 3.392302000793076 -39.18047962287767 0.24423623127642438 3.9191837365568882 59.070962943349684 4.1085114522974155 -20.913364221879288 -25.445575894252904 9.037925733585928 -0.000005795440558722572 1.1143876613550807 0.0000011892384903777314 -5.892750560544083 -38.97459112559091 2.4943063540077834 10.769663933351847 59.11450514566503 7.6154787156773205 16.31859365571219 -25.00021718534787 -8.855189352325317 0.000009566318827447534 -6.755972411536751 -0.0000016245648903506227
-0.11211418360471725 -1.678437995270997 -1.1303942203521729 -1.3180885379826288 5.456939538614227 -0.7839163191714162 1.0465232490850682 18.08315532624786 0.7726254484012365 1.1300383431666252 19.578049638691304 0.11118412523442131 -1.280278135653441 -1.063206107785476 1.2869289938500967 -5.292465318755501 -8.354080698098866 0.031269855366711286 0 0 0 0 0 0 0 0 0 5.070760510713254 6.861422053640377 10.761761844949236 59.75094919256232 -33.85439392547836 28.41608747278209 6.838976888115028 0.005264231989889882 -0.08813310803320537 15.958492823358947 48.52570965325974 11.356290865207276 -20.03269161087369 4.692233417127662 26.80121501990411 -1.6687171538685617 0.34173263866111453 26.472814199067095 -0.6544532279454105 0.030467697739909004 8.743967679226532 -13.115935274078934 4.099667228502102 21.339456576208715 -1.3936319933705255 0.24910135895758173 20.414747461893565 -1.295089422445271 0.22246803783122415 19.0900270606515 -4.8088549014465825 0.4922105099360258 11.739619540713436 -1.0004128210825325 0.14508351157803298 16.2216237110999 -1.0447816015482465 0.13086122886483362 14.883304329708439 8.733398789002974 -0.43745550828832774 3.7131968930280017 -0.6233319970205141 0.052885345164822455 9.572251897392713 -0.5753733660927599 0.04088588936762139 8.28341439068268 7.427308069186294 -5.720841950628336 -3.7607850816127217 -4.519470856619929 4.785845302403394 -1.4204327819644247 10.261649929662797 -10.56498788074409 -12.674037873127247 -15.172641972937416 5.108118899310508 -6.929857395756078 -58.04419793581993 -24.722596892705887 -21.94255413612281 -8.298108084215691 0.0077415850570719345 0.1068292554123281 -4.648687950707525 21.768997085644692 -10.719419830754719 19.727584943865043 4.2490881475370665 -24.897891217400144 1.9855466165475801 0.500710305754939 -23.28958954964797 0.7033306491606044 0.07797393721109079 -7.997105594185749 12.856422671912284 3.593449808377683 -19.617513224461288 1.523715421620735 0.23197813719011678 -17.295929429568236 1.5926089213089727 0.25396506080561093 -18.103853362458302 4.9575693925524815 0.4608234241465488 -10.474891339930855 1.1684801736702102 0.13415885835175073 -13.15133969601101 1.2339329411400446 0.150455740033385 -13.904743174503768 -7.9800841201673585 -0.38973536041571816 -2.940151843135293 0.6018728378940323 0.03486880155120091 -6.610366536111481 0.6546302247084235 0.042880468555889534 -7.4245584413526435 -5.626874413056612 -4.932966240722458 4.33533497460619 2.848398455856249 4.294189376157475 0.3951153562769728 -15.994173967154298 -12.564950842345239 12.103829068870565 4.2500609517056755 -40.417143732096704 0.30650345642855314 3.981356840471596 62.03489693059631 3.784177520859968 -21.91352399684309 -26.29149550500692 10.078367077935976 0.0000033513419728322787 1.1143876613550807 0.000001988652079357532 -5.983637169401675 -40.14132709030549 2.224172319398517 11.803817524354136 61.9070050453552 9.01547799451455 17.011814569442258 -25.91836107132201 -9.650664952663512 0.000006854362734117155 -6.755972411536751 1.2766113943152149e-7
